<svg width="34" height="40" viewBox="0 0 34 40" fill="none" xmlns="http://www.w3.org/2000/svg">
<path d="M28.0576 21.2102C28.1145 27.2521 33.4367 29.2626 33.4956 29.2883C33.4505 29.43 32.6451 32.1534 30.6917 34.9665C29.003 37.3986 27.2502 39.8217 24.4891 39.8719C21.7764 39.9211 20.9039 38.2867 17.8022 38.2867C14.7014 38.2867 13.7322 39.8217 11.164 39.9211C8.49898 40.0206 6.46951 37.2913 4.76686 34.8681C1.28732 29.9115 -1.37169 20.8617 2.1987 14.753C3.97236 11.7194 7.14222 9.79848 10.5826 9.74921C13.1996 9.70006 15.6698 11.4841 17.2696 11.4841C18.8684 11.4841 21.8702 9.33867 25.0259 9.65372C26.3468 9.70794 30.0552 10.1794 32.4364 13.6138C32.2444 13.731 28.0116 16.1591 28.0576 21.2103M22.959 6.37448C24.374 4.68686 25.3263 2.33765 25.0665 0C23.0269 0.0807619 20.5609 1.33917 19.0979 3.02578C17.7869 4.51949 16.6388 6.9101 16.9486 9.2014C19.2219 9.37473 21.544 8.06311 22.959 6.37448Z" fill="white"/>
</svg>
