<svg width="32" height="32" viewBox="0 0 32 32" fill="none" xmlns="http://www.w3.org/2000/svg">
<g clip-path="url(#clip0_89_406)">
<path d="M16 0C7.1635 0 0 7.1635 0 16C0 24.837 7.1635 32 16 32C24.837 32 32 24.837 32 16C32 7.1635 24.837 0 16 0ZM16 30.0315C8.2805 30.0315 2 23.7195 2 15.9999C2 8.28044 8.2805 1.99994 16 1.99994C23.7195 1.99994 30 8.28047 30 15.9999C30 23.7194 23.7195 30.0315 16 30.0315ZM22.3855 10.1455L12.998 19.592L8.77047 15.3645C8.37997 14.974 7.74697 14.974 7.35597 15.3645C6.96547 15.755 6.96547 16.388 7.35597 16.7785L12.3055 21.7285C12.696 22.1185 13.329 22.1185 13.72 21.7285C13.765 21.6835 13.8035 21.6345 13.8385 21.5835L23.8005 11.56C24.1905 11.1695 24.1905 10.5365 23.8005 10.1455C23.4095 9.755 22.7765 9.755 22.3855 10.1455Z" fill="#3A3A3A"/>
</g>
<defs>
<clipPath id="clip0_89_406">
<rect width="32" height="32" fill="white"/>
</clipPath>
</defs>
</svg>
