<svg width="48" height="48" viewBox="0 0 48 48" fill="none" xmlns="http://www.w3.org/2000/svg">
<rect width="48" height="48" rx="24" fill="#034557"/>
<path d="M15.9642 20.4283L21.7808 24.3067C22.5833 24.8408 22.9842 25.1083 23.4175 25.2125C23.8008 25.3042 24.2 25.3042 24.5825 25.2125C25.0158 25.1083 25.4167 24.8408 26.2192 24.3067L32.0358 20.4283M19.9642 30.25H28.0358C29.4358 30.25 30.1358 30.25 30.6708 29.9775C31.1409 29.7377 31.523 29.3553 31.7625 28.885C32.0358 28.35 32.0358 27.65 32.0358 26.25V21.75C32.0358 20.35 32.0358 19.65 31.7633 19.115C31.5237 18.6446 31.1412 18.2622 30.6708 18.0225C30.1358 17.75 29.4358 17.75 28.0358 17.75H19.9642C18.5642 17.75 17.8642 17.75 17.3292 18.0225C16.8591 18.2623 16.477 18.6447 16.2375 19.115C15.9642 19.65 15.9642 20.35 15.9642 21.75V26.25C15.9642 27.65 15.9642 28.35 16.2367 28.885C16.4764 29.3554 16.8588 29.7378 17.3292 29.9775C17.8642 30.25 18.5642 30.25 19.9642 30.25Z" stroke="white" stroke-width="1.25" stroke-linecap="round" stroke-linejoin="round"/>
</svg>
