<svg width="17" height="16" viewBox="0 0 17 16" fill="none" xmlns="http://www.w3.org/2000/svg">
<g clip-path="url(#clip0_95_576)">
<path d="M8 2C8.66304 2 9.29893 2.26339 9.76777 2.73223C10.2366 3.20107 10.5 3.83696 10.5 4.5C10.5 5.023 10.333 5.423 10.077 5.74C9.89631 5.95531 9.68625 6.14416 9.453 6.301L9.286 6.418C9.024 6.6 8.835 6.735 8.7 6.901C8.56175 7.06879 8.49051 7.28181 8.5 7.499V8.499C8.5 8.63161 8.44732 8.75879 8.35355 8.85255C8.25979 8.94632 8.13261 8.999 8 8.999C7.86739 8.999 7.74021 8.94632 7.64645 8.85255C7.55268 8.75879 7.5 8.63161 7.5 8.499V7.499C7.5 6.98 7.668 6.583 7.925 6.269C8.11 6.043 8.338 5.865 8.541 5.719L8.714 5.598C8.974 5.417 9.163 5.281 9.298 5.113C9.43881 4.94067 9.51077 4.72228 9.5 4.5C9.5 4.10218 9.34196 3.72064 9.06066 3.43934C8.77936 3.15804 8.39782 3 8 3C7.60218 3 7.22064 3.15804 6.93934 3.43934C6.65804 3.72064 6.5 4.10218 6.5 4.5C6.5 4.63261 6.44732 4.75979 6.35355 4.85355C6.25979 4.94732 6.13261 5 6 5C5.86739 5 5.74021 4.94732 5.64645 4.85355C5.55268 4.75979 5.5 4.63261 5.5 4.5C5.5 3.83696 5.76339 3.20107 6.23223 2.73223C6.70107 2.26339 7.33696 2 8 2ZM8 10.1C8.23206 10.1 8.45462 10.1922 8.61872 10.3563C8.78281 10.5204 8.875 10.7429 8.875 10.975C8.875 11.2071 8.78281 11.4296 8.61872 11.5937C8.45462 11.7578 8.23206 11.85 8 11.85C7.76794 11.85 7.54538 11.7578 7.38128 11.5937C7.21719 11.4296 7.125 11.2071 7.125 10.975C7.125 10.7429 7.21719 10.5204 7.38128 10.3563C7.54538 10.1922 7.76794 10.1 8 10.1Z" fill="#034557"/>
<path fill-rule="evenodd" clip-rule="evenodd" d="M7.99999 14C9.17999 14 10.19 13.863 11.05 13.611C12.05 14.31 13.38 15.031 15.1 15.881C16.016 16.337 16.89 15.303 16.31 14.461C15.583 13.391 14.95 12.351 14.45 11.171C15.186 10.001 15.49 8.56098 15.49 7.00098C15.49 3.13098 13.61 0.000976562 7.98999 0.000976562C2.36999 0.000976562 0.48999 3.14098 0.48999 7.00098C0.48999 10.871 2.36999 14.001 7.98999 14.001L7.99999 14ZM13.61 10.64C13.5242 10.7759 13.4724 10.9304 13.459 11.0906C13.4456 11.2507 13.471 11.4117 13.533 11.56C14.049 12.79 14.703 13.87 15.423 14.93C13.773 14.107 12.543 13.43 11.623 12.79C11.5005 12.7045 11.3603 12.6475 11.2129 12.6233C11.0654 12.5991 10.9144 12.6082 10.771 12.65C10.013 12.871 9.10099 12.999 8.00099 12.999C5.37099 12.999 3.80099 12.271 2.87099 11.269C1.92999 10.249 1.49999 8.78898 1.49999 6.99898C1.49999 5.20898 1.93399 3.73898 2.86999 2.72898C3.79699 1.72898 5.36999 0.998977 7.99999 0.998977C10.63 0.998977 12.2 1.72698 13.13 2.72898C14.07 3.74898 14.5 5.20898 14.5 6.99898C14.5 8.43898 14.216 9.67898 13.612 10.639L13.61 10.64Z" fill="#034557"/>
</g>
<defs>
<clipPath id="clip0_95_576">
<rect width="16" height="16" fill="white" transform="translate(0.5)"/>
</clipPath>
</defs>
</svg>
