<svg width="17" height="16" viewBox="0 0 17 16" fill="none" xmlns="http://www.w3.org/2000/svg">
<path d="M3.32 12.9234V6.82004H3.192C2.99644 6.82004 2.83222 6.75338 2.69933 6.62004C2.56644 6.48671 2.5 6.32293 2.5 6.12871V4.56404C2.5 4.36849 2.56644 4.20404 2.69933 4.07071C2.83222 3.93738 2.99667 3.87115 3.19267 3.87204H5.928C5.79556 3.75471 5.704 3.6156 5.65333 3.45471C5.60267 3.29426 5.57733 3.1256 5.57733 2.94871C5.57733 2.50693 5.73178 2.1316 6.04067 1.82271C6.34956 1.51382 6.72489 1.35937 7.16667 1.35938C7.42222 1.35938 7.65689 1.41937 7.87067 1.53937C8.084 1.65938 8.26822 1.8156 8.42333 2.00804C8.578 1.81293 8.762 1.65604 8.97533 1.53737C9.18867 1.41871 9.42333 1.35938 9.67933 1.35938C10.1211 1.35938 10.4967 1.51382 10.806 1.82271C11.1153 2.1316 11.2698 2.50693 11.2693 2.94871C11.2693 3.12204 11.2431 3.28938 11.1907 3.45071C11.1382 3.61204 11.0473 3.75249 10.918 3.87204H13.808C14.0036 3.87204 14.1678 3.93849 14.3007 4.07137C14.4336 4.20426 14.5 4.36871 14.5 4.56471V6.12804C14.5 6.3236 14.4336 6.48804 14.3007 6.62138C14.1678 6.75471 14.0033 6.82115 13.8073 6.82071H13.6793V12.9234C13.6793 13.2194 13.574 13.4727 13.3633 13.6834C13.1527 13.894 12.8991 13.9996 12.6027 14H4.39733C4.10133 14 3.848 13.8945 3.63733 13.6834C3.42667 13.4723 3.32044 13.2189 3.32 12.9234ZM9.67933 2.02604C9.418 2.02604 9.19889 2.11449 9.022 2.29138C8.84511 2.46826 8.75667 2.68737 8.75667 2.94871C8.75667 3.21004 8.84511 3.42937 9.022 3.60671C9.19889 3.78404 9.418 3.87249 9.67933 3.87204C9.94067 3.8716 10.16 3.78315 10.3373 3.60671C10.5147 3.43026 10.6031 3.21093 10.6027 2.94871C10.6022 2.68649 10.5138 2.46738 10.3373 2.29138C10.1609 2.11538 9.94156 2.02693 9.67933 2.02604ZM6.24333 2.94871C6.24333 3.21049 6.33178 3.42982 6.50867 3.60671C6.68556 3.7836 6.90489 3.87204 7.16667 3.87204C7.42844 3.87204 7.64756 3.7836 7.824 3.60671C8.00044 3.42982 8.08889 3.21049 8.08933 2.94871C8.08978 2.68693 8.00133 2.46782 7.824 2.29138C7.64667 2.11493 7.42756 2.02649 7.16667 2.02604C6.90578 2.0256 6.68667 2.11404 6.50933 2.29138C6.332 2.46871 6.24356 2.68782 6.244 2.94871M3.16667 4.53871V6.15337H8.16667V4.53871H3.16667ZM8.16667 13.3334V6.82004H3.98667V12.9234C3.98667 13.0429 4.02533 13.1412 4.10267 13.218C4.17956 13.2949 4.27778 13.3334 4.39733 13.3334H8.16667ZM8.83333 13.3334H12.6027C12.7222 13.3334 12.8204 13.2949 12.8973 13.218C12.9742 13.1412 13.0127 13.0429 13.0127 12.9234V6.82004H8.83333V13.3334ZM13.8333 6.15337V4.53938H8.83333V6.15337H13.8333Z" fill="#034557"/>
</svg>
