<svg width="17" height="16" viewBox="0 0 17 16" fill="none" xmlns="http://www.w3.org/2000/svg">
<path d="M4.65286 6.53422H3.76397C3.70503 6.53422 3.64851 6.51081 3.60684 6.46914C3.56516 6.42746 3.54175 6.37094 3.54175 6.312V3.20089C3.54175 3.14195 3.56516 3.08543 3.60684 3.04376C3.64851 3.00208 3.70503 2.97867 3.76397 2.97867H4.65286C4.7118 2.97867 4.76832 3.00208 4.80999 3.04376C4.85167 3.08543 4.87508 3.14195 4.87508 3.20089V6.312C4.87508 6.37094 4.85167 6.42746 4.80999 6.46914C4.76832 6.51081 4.7118 6.53422 4.65286 6.53422Z" fill="#A0041E"/>
<path d="M2.72223 7.11111L8.50001 1.33333L14.2778 7.11111V14.6667H2.72223V7.11111Z" fill="#FFE8B6"/>
<path d="M8.5 7.11111H8.94444V14.2222H8.5V7.11111Z" fill="#FFCC4D"/>
<path d="M14.2778 7.55555C14.1599 7.55552 14.0469 7.50868 13.9635 7.42533L8.49999 1.96177L3.03643 7.42533C2.99517 7.46659 2.94618 7.49932 2.89227 7.52166C2.83835 7.54399 2.78057 7.55548 2.72221 7.55548C2.66385 7.55548 2.60607 7.54399 2.55215 7.52166C2.49824 7.49932 2.44925 7.46659 2.40799 7.42533C2.36672 7.38406 2.33399 7.33507 2.31166 7.28116C2.28933 7.22725 2.27783 7.16946 2.27783 7.1111C2.27783 7.05275 2.28933 6.99496 2.31166 6.94105C2.33399 6.88713 2.36672 6.83815 2.40799 6.79688L8.18576 1.0191C8.26911 0.935784 8.38214 0.888977 8.49999 0.888977C8.61784 0.888977 8.73086 0.935784 8.81421 1.0191L14.592 6.79688C14.6543 6.85896 14.6969 6.93816 14.7141 7.02443C14.7314 7.1107 14.7226 7.20016 14.689 7.28145C14.6553 7.36274 14.5982 7.43219 14.525 7.48099C14.4518 7.52979 14.3657 7.55574 14.2778 7.55555Z" fill="#66757F"/>
<path d="M8.49997 7.55556C8.41199 7.55575 8.32593 7.5298 8.25272 7.481C8.17951 7.4322 8.12245 7.36275 8.08879 7.28146C8.05512 7.20017 8.04636 7.11071 8.06362 7.02444C8.08089 6.93816 8.1234 6.85896 8.18575 6.79689L11.0746 3.908C11.1159 3.86674 11.1649 3.83401 11.2188 3.81167C11.2727 3.78934 11.3305 3.77785 11.3889 3.77785C11.4472 3.77785 11.505 3.78934 11.5589 3.81167C11.6128 3.83401 11.6618 3.86674 11.7031 3.908C11.7443 3.94927 11.7771 3.99825 11.7994 4.05217C11.8217 4.10608 11.8332 4.16387 11.8332 4.22222C11.8332 4.28058 11.8217 4.33837 11.7994 4.39228C11.7771 4.44619 11.7443 4.49518 11.7031 4.53645L8.8142 7.42534C8.73087 7.50869 8.61784 7.55553 8.49997 7.55556Z" fill="#66757F"/>
<path d="M4.94446 11.5556H6.72224V14.2222H4.94446V11.5556Z" fill="#C1694F"/>
<path d="M4.94446 7.55556H6.72224V9.33334H4.94446V7.55556ZM10.5 7.55556H12.2778V9.33334H10.5V7.55556ZM10.5 11.5556H12.2778V13.3333H10.5V11.5556Z" fill="#55ACEE"/>
<path d="M15.3889 14.8889C15.3889 15.0657 15.3186 15.2353 15.1936 15.3603C15.0686 15.4853 14.899 15.5556 14.7222 15.5556H2.27775C2.10094 15.5556 1.93137 15.4853 1.80635 15.3603C1.68132 15.2353 1.61108 15.0657 1.61108 14.8889C1.61108 14.7121 1.68132 14.5425 1.80635 14.4175C1.93137 14.2925 2.10094 14.2222 2.27775 14.2222H14.7222C14.899 14.2222 15.0686 14.2925 15.1936 14.4175C15.3186 14.5425 15.3889 14.7121 15.3889 14.8889Z" fill="#5C913B"/>
</svg>
