<svg width="21" height="20" viewBox="0 0 21 20" fill="none" xmlns="http://www.w3.org/2000/svg">
<path d="M17.8504 1.25H3.24531C2.44727 1.25 1.75 1.82422 1.75 2.61289V17.2504C1.75 18.0434 2.44727 18.75 3.24531 18.75H17.8461C18.6484 18.75 19.25 18.0387 19.25 17.2504V2.61289C19.2547 1.82422 18.6484 1.25 17.8504 1.25ZM7.17461 15.8371H4.66758V8.04219H7.17461V15.8371ZM6.00781 6.85703H5.98984C5.1875 6.85703 4.66797 6.25977 4.66797 5.51211C4.66797 4.75078 5.20117 4.16758 6.02148 4.16758C6.8418 4.16758 7.34375 4.74648 7.36172 5.51211C7.36133 6.25977 6.8418 6.85703 6.00781 6.85703ZM16.3371 15.8371H13.8301V11.575C13.8301 10.5539 13.4652 9.85625 12.5582 9.85625C11.8652 9.85625 11.4551 10.325 11.2727 10.7816C11.2043 10.9457 11.1859 11.1691 11.1859 11.3973V15.8371H8.67891V8.04219H11.1859V9.12695C11.5508 8.60742 12.1207 7.85977 13.4469 7.85977C15.0926 7.85977 16.3375 8.94453 16.3375 11.2832L16.3371 15.8371Z" fill="#F7F8F8"/>
</svg>
