<svg width="33" height="32" viewBox="0 0 33 32" fill="none" xmlns="http://www.w3.org/2000/svg">
<path d="M3.5 3.71831V28.2808C3.50016 28.3341 3.51606 28.3862 3.54569 28.4304C3.57532 28.4747 3.61737 28.5093 3.66656 28.5298C3.71575 28.5503 3.7699 28.5558 3.82222 28.5456C3.87453 28.5355 3.92268 28.5101 3.96062 28.4727L16.75 16.0002L3.96062 3.52644C3.92268 3.48902 3.87453 3.46364 3.82222 3.45349C3.7699 3.44333 3.71575 3.44884 3.66656 3.46933C3.61737 3.48982 3.57532 3.52438 3.54569 3.56867C3.51606 3.61297 3.50016 3.66502 3.5 3.71831ZM22.1125 10.8752L6.07625 2.04019L6.06625 2.03456C5.79 1.88456 5.5275 2.25831 5.75375 2.47581L18.3244 14.4958L22.1125 10.8752ZM5.755 29.5246C5.5275 29.7421 5.79 30.1158 6.0675 29.9658L6.0775 29.9602L22.1125 21.1252L18.3244 17.5033L5.755 29.5246ZM28.5862 14.4377L24.1081 11.9714L19.8975 16.0002L24.1081 20.0271L28.5862 17.5627C29.8044 16.8896 29.8044 15.1108 28.5862 14.4377Z" fill="white"/>
</svg>
