<svg width="16" height="16" viewBox="0 0 16 16" fill="none" xmlns="http://www.w3.org/2000/svg">
<path d="M4.66136 9.66809C4.48455 9.66809 4.31498 9.73833 4.18995 9.86335C4.06493 9.98837 3.99469 10.1579 3.99469 10.3348V11.5228C3.1353 10.5511 2.66106 9.2986 2.66136 8.00142C2.66058 7.80533 2.67215 7.60939 2.69602 7.41475C2.70874 7.32681 2.70375 7.23722 2.68135 7.15123C2.65895 7.06525 2.61958 6.98461 2.56556 6.91405C2.51155 6.8435 2.44397 6.78446 2.36681 6.74039C2.28965 6.69633 2.20446 6.66814 2.11624 6.65747C2.02803 6.64681 1.93857 6.65388 1.85314 6.67829C1.7677 6.70269 1.688 6.74393 1.61872 6.79957C1.54945 6.85522 1.492 6.92415 1.44975 7.00232C1.40749 7.08049 1.3813 7.16632 1.37269 7.25475C1.34229 7.50247 1.32737 7.75184 1.32802 8.00142C1.3287 9.59225 1.90049 11.13 2.93936 12.3348H1.99469C1.81788 12.3348 1.64831 12.405 1.52329 12.53C1.39826 12.655 1.32802 12.8246 1.32802 13.0014C1.32802 13.1782 1.39826 13.3478 1.52329 13.4728C1.64831 13.5978 1.81788 13.6681 1.99469 13.6681H4.66136C4.76564 13.6668 4.8681 13.6407 4.96019 13.5917C5.05228 13.5428 5.13132 13.4725 5.19069 13.3868L5.21536 13.3581C5.22002 13.3514 5.22002 13.3434 5.22402 13.3368C5.2555 13.283 5.27929 13.2251 5.29469 13.1648C5.30455 13.1307 5.31169 13.0959 5.31602 13.0608C5.31802 13.0408 5.32802 13.0228 5.32802 13.0014V10.3348C5.32802 10.1579 5.25779 9.98837 5.13276 9.86335C5.00774 9.73833 4.83817 9.66809 4.66136 9.66809ZM5.66136 4.00142H4.47269C5.44453 3.14188 6.69728 2.66762 7.99469 2.66809C8.19079 2.66753 8.38674 2.67933 8.58136 2.70342C8.75702 2.72464 8.93391 2.6752 9.07313 2.566C9.21234 2.45679 9.30247 2.29675 9.32369 2.12109C9.34491 1.94543 9.29548 1.76853 9.18627 1.62932C9.07706 1.4901 8.91702 1.39997 8.74136 1.37875C8.49363 1.34857 8.24425 1.33388 7.99469 1.33475C6.40386 1.33543 4.86614 1.90722 3.66136 2.94609V2.00142C3.66136 1.82461 3.59112 1.65504 3.46609 1.53002C3.34107 1.40499 3.1715 1.33475 2.99469 1.33475C2.81788 1.33475 2.64831 1.40499 2.52329 1.53002C2.39826 1.65504 2.32802 1.82461 2.32802 2.00142V4.66809C2.33235 4.71218 2.34106 4.75573 2.35402 4.79809C2.37059 4.8802 2.40248 4.95845 2.44802 5.02875L2.45602 5.04009C2.50029 5.1038 2.55534 5.1593 2.61869 5.20409C2.62602 5.20942 2.63002 5.21742 2.63736 5.22275C2.64669 5.22942 2.65736 5.23142 2.66736 5.23675C2.7054 5.25936 2.7456 5.27812 2.78736 5.29275C2.84352 5.31224 2.90204 5.32412 2.96136 5.32809C2.97336 5.32809 2.98269 5.33475 2.99469 5.33475H5.66136C5.83817 5.33475 6.00774 5.26452 6.13276 5.13949C6.25779 5.01447 6.32802 4.8449 6.32802 4.66809C6.32802 4.49128 6.25779 4.32171 6.13276 4.19668C6.00774 4.07166 5.83817 4.00142 5.66136 4.00142ZM13.6347 11.2041C13.618 11.1222 13.5862 11.0442 13.5407 10.9741L13.5334 10.9628C13.4889 10.899 13.4336 10.8435 13.37 10.7988C13.3627 10.7934 13.3594 10.7854 13.3514 10.7801C13.3447 10.7754 13.336 10.7754 13.3287 10.7708C13.2438 10.7242 13.1512 10.6935 13.0554 10.6801C13.034 10.6781 13.016 10.6681 12.9947 10.6681H10.328C10.1512 10.6681 9.98164 10.7383 9.85662 10.8633C9.7316 10.9884 9.66136 11.1579 9.66136 11.3348C9.66136 11.5116 9.7316 11.6811 9.85662 11.8062C9.98164 11.9312 10.1512 12.0014 10.328 12.0014H11.516C10.5444 12.8608 9.29187 13.3351 7.99469 13.3348C7.79857 13.3351 7.60263 13.3231 7.40802 13.2988C7.23236 13.2775 7.05547 13.327 6.91625 13.4362C6.77704 13.5454 6.68691 13.7054 6.66569 13.8811C6.64447 14.0567 6.69391 14.2336 6.80311 14.3729C6.91232 14.5121 7.07236 14.6022 7.24802 14.6234C7.49574 14.6538 7.74511 14.6687 7.99469 14.6681C9.58552 14.6674 11.1232 14.0956 12.328 13.0568V14.0014C12.328 14.1782 12.3983 14.3478 12.5233 14.4728C12.6483 14.5978 12.8179 14.6681 12.9947 14.6681C13.1715 14.6681 13.3411 14.5978 13.4661 14.4728C13.5911 14.3478 13.6614 14.1782 13.6614 14.0014V11.3348C13.6568 11.2906 13.6479 11.2464 13.6347 11.2041ZM13.9947 3.66809C14.1715 3.66809 14.3411 3.59785 14.4661 3.47283C14.5911 3.3478 14.6614 3.17823 14.6614 3.00142C14.6614 2.82461 14.5911 2.65504 14.4661 2.53002C14.3411 2.40499 14.1715 2.33475 13.9947 2.33475H11.328C11.2846 2.33921 11.2417 2.34792 11.2 2.36075L11.1954 2.36142C11.1147 2.37825 11.0378 2.4099 10.9687 2.45475L10.9554 2.46342C10.8919 2.50775 10.8366 2.56279 10.792 2.62609C10.7867 2.63275 10.7787 2.63675 10.7734 2.64409C10.7687 2.65075 10.7687 2.65942 10.764 2.66675C10.7173 2.75224 10.6866 2.84555 10.6734 2.94209C10.6714 2.96209 10.6614 2.98009 10.6614 3.00142V5.66809C10.6614 5.8449 10.7316 6.01447 10.8566 6.13949C10.9816 6.26452 11.1512 6.33475 11.328 6.33475C11.5048 6.33475 11.6744 6.26452 11.7994 6.13949C11.9245 6.01447 11.9947 5.8449 11.9947 5.66809V4.47942C12.8537 5.45158 13.3279 6.70412 13.328 8.00142C13.3286 8.19752 13.3168 8.39347 13.2927 8.58809C13.2714 8.76357 13.3207 8.94031 13.4297 9.07945C13.5387 9.21859 13.6986 9.30875 13.874 9.33009C13.901 9.3333 13.9282 9.33486 13.9554 9.33475C14.1181 9.33447 14.2751 9.27465 14.3968 9.16658C14.5185 9.05852 14.5965 8.90966 14.616 8.74809C14.6467 8.50038 14.6618 8.25101 14.6614 8.00142C14.6607 6.41059 14.0889 4.87287 13.05 3.66809H13.9947Z" fill="#034557"/>
</svg>
