<svg width="18" height="20" viewBox="0 0 18 20" fill="none" xmlns="http://www.w3.org/2000/svg">
<g clip-path="url(#clip0_95_597)">
<path d="M2.5 1.25C1.12109 1.25 0 2.37109 0 3.75V16.25C0 17.6289 1.12109 18.75 2.5 18.75H15C16.3789 18.75 17.5 17.6289 17.5 16.25V3.75C17.5 2.37109 16.3789 1.25 15 1.25H2.5ZM14.1055 4.53125L10.0508 9.16406L14.8203 15.4688H11.0859L8.16406 11.6445L4.81641 15.4688H2.96094L7.29688 10.5117L2.72266 4.53125H6.55078L9.19531 8.02734L12.25 4.53125H14.1055ZM12.6289 14.3594L5.99219 5.58203H4.88672L11.5977 14.3594H12.625H12.6289Z" fill="#F7F8F8"/>
</g>
<defs>
<clipPath id="clip0_95_597">
<rect width="17.5" height="20" fill="white"/>
</clipPath>
</defs>
</svg>
