<svg width="16" height="16" viewBox="0 0 16 16" fill="none" xmlns="http://www.w3.org/2000/svg">
<path d="M3.83334 5.00004C3.83335 4.71048 3.91716 4.42711 4.07467 4.18414C4.23218 3.94116 4.45665 3.74897 4.72098 3.63076C4.98532 3.51255 5.27821 3.47338 5.56432 3.51797C5.85043 3.56256 6.11751 3.689 6.33334 3.88204C6.43231 3.96954 6.56189 4.01431 6.69377 4.00658C6.82565 3.99885 6.94911 3.93924 7.03718 3.84078C7.12525 3.74231 7.17078 3.613 7.16381 3.48108C7.15685 3.34916 7.09796 3.22535 7.00001 3.13671C6.75568 2.9156 6.47004 2.74497 6.15953 2.63464C5.84902 2.52431 5.51977 2.47646 5.1907 2.49383C4.86163 2.51121 4.53924 2.59347 4.24208 2.73588C3.94491 2.87829 3.67883 3.07805 3.45915 3.32366C3.23946 3.56927 3.07049 3.85589 2.96197 4.16704C2.85345 4.47818 2.80751 4.80771 2.8268 5.13668C2.84608 5.46564 2.93021 5.78754 3.07435 6.08387C3.21849 6.38021 3.41979 6.64512 3.66667 6.86338C3.76565 6.95087 3.89523 6.99565 4.0271 6.98792C4.15898 6.98018 4.28244 6.92058 4.37051 6.82211C4.45858 6.72365 4.50411 6.59433 4.49714 6.46241C4.49018 6.33049 4.43129 6.20669 4.33334 6.11804C4.17571 5.97762 4.04964 5.80537 3.96346 5.61266C3.87727 5.41995 3.83292 5.21115 3.83334 5.00004ZM10.6667 2.50004C10.0516 2.49943 9.45802 2.72618 9.00001 3.13671C8.90206 3.22535 8.84317 3.34916 8.8362 3.48108C8.82924 3.613 8.87476 3.74231 8.96283 3.84078C9.0509 3.93924 9.17436 3.99885 9.30624 4.00658C9.43812 4.01431 9.5677 3.96954 9.66667 3.88204C9.96327 3.61683 10.3531 3.4803 10.7503 3.50249C11.1476 3.52468 11.5198 3.70378 11.785 4.00038C12.0502 4.29698 12.1868 4.68679 12.1646 5.08405C12.1424 5.48132 11.9633 5.85349 11.6667 6.11871C11.5728 6.20837 11.5174 6.33103 11.5123 6.46077C11.5072 6.5905 11.5528 6.71713 11.6394 6.81386C11.726 6.91059 11.8469 6.96985 11.9764 6.97909C12.1059 6.98833 12.2339 6.94683 12.3333 6.86338C12.7107 6.52583 12.9767 6.08166 13.0961 5.58964C13.2155 5.09763 13.1827 4.58095 13.002 4.10798C12.8214 3.63501 12.5014 3.22804 12.0844 2.94092C11.6673 2.65379 11.173 2.50006 10.6667 2.50004Z" fill="#034557"/>
<path d="M8 4.5C7.6717 4.5 7.34661 4.56466 7.04329 4.6903C6.73998 4.81594 6.46438 5.00009 6.23223 5.23223C6.00009 5.46438 5.81594 5.73998 5.6903 6.04329C5.56466 6.34661 5.5 6.6717 5.5 7C5.5 7.3283 5.56466 7.65339 5.6903 7.95671C5.81594 8.26002 6.00009 8.53562 6.23223 8.76777C6.46438 8.99991 6.73998 9.18406 7.04329 9.3097C7.34661 9.43534 7.6717 9.5 8 9.5C8.66304 9.5 9.29893 9.23661 9.76777 8.76777C10.2366 8.29893 10.5 7.66304 10.5 7C10.5 6.33696 10.2366 5.70107 9.76777 5.23223C9.29893 4.76339 8.66304 4.5 8 4.5ZM4.12667 9.65067C4.19023 9.63403 4.24989 9.60504 4.30224 9.56535C4.3546 9.52566 4.39863 9.47605 4.43181 9.41934C4.46499 9.36263 4.48668 9.29995 4.49563 9.23486C4.50459 9.16977 4.50063 9.10356 4.484 9.04C4.46737 8.97644 4.43838 8.91678 4.39868 8.86442C4.35899 8.81207 4.30938 8.76804 4.25267 8.73486C4.19597 8.70168 4.13328 8.67999 4.06819 8.67104C4.00311 8.66208 3.93689 8.66603 3.87333 8.68267C3.22667 8.85267 2.64933 9.13733 2.224 9.52C1.79733 9.90333 1.5 10.4107 1.5 11C1.5 11.1326 1.55268 11.2598 1.64645 11.3536C1.74021 11.4473 1.86739 11.5 2 11.5C2.13261 11.5 2.25979 11.4473 2.35355 11.3536C2.44732 11.2598 2.5 11.1326 2.5 11C2.5 10.7693 2.61333 10.514 2.89333 10.2633C3.17333 10.0113 3.596 9.79067 4.12667 9.65067ZM12.1267 8.68333C12.0004 8.6552 11.8681 8.67712 11.7576 8.7445C11.6471 8.81187 11.5671 8.91945 11.5343 9.04462C11.5015 9.16979 11.5185 9.3028 11.5817 9.41569C11.6449 9.52859 11.7495 9.61257 11.8733 9.65C12.404 9.79 12.8267 10.0113 13.1067 10.2633C13.3867 10.514 13.5 10.77 13.5 11C13.5 11.1326 13.5527 11.2598 13.6464 11.3536C13.7402 11.4473 13.8674 11.5 14 11.5C14.1326 11.5 14.2598 11.4473 14.3536 11.3536C14.4473 11.2598 14.5 11.1326 14.5 11C14.5 10.4107 14.2027 9.90333 13.776 9.52C13.3507 9.13733 12.7733 8.85267 12.1267 8.68333ZM8 10.5C7.00467 10.5 6.07933 10.7413 5.386 11.1573C4.70267 11.5673 4.16667 12.2033 4.16667 13C4.16667 13.1326 4.21935 13.2598 4.31311 13.3536C4.40688 13.4473 4.53406 13.5 4.66667 13.5C4.79927 13.5 4.92645 13.4473 5.02022 13.3536C5.11399 13.2598 5.16667 13.1326 5.16667 13C5.16667 12.692 5.37733 12.3287 5.9 12.0147C6.41333 11.7067 7.15467 11.5 8 11.5C8.84533 11.5 9.58667 11.7067 10.1 12.0147C10.6227 12.328 10.8333 12.6927 10.8333 13C10.8333 13.1326 10.886 13.2598 10.9798 13.3536C11.0735 13.4473 11.2007 13.5 11.3333 13.5C11.4659 13.5 11.5931 13.4473 11.6869 13.3536C11.7807 13.2598 11.8333 13.1326 11.8333 13C11.8333 12.2033 11.2973 11.5667 10.614 11.1573C9.92067 10.7413 8.99533 10.5 8 10.5Z" fill="#034557"/>
</svg>
